<svg xmlns="http://www.w3.org/2000/svg" width="1440" height="900" viewBox="0 0 1440 900" role="img">
  <title>Coordena Planilhas - estado do repo</title>
  <desc>Repo sem interface implementada Dados fictícios, sem informação real de pacientes, profissionais ou instituição.</desc>
  <defs>
    <filter id="shadow" x="-15%" y="-15%" width="130%" height="130%"><feDropShadow dx="0" dy="18" stdDeviation="18" flood-color="#0f172a" flood-opacity=".13"/></filter>
    <style>.ui{font-family:Inter,Segoe UI,Arial,sans-serif;letter-spacing:0}</style>
  </defs>
  <rect width="1440" height="900" fill="#f8fafc"/>
  <rect x="34" y="28" width="1372" height="824" rx="26" fill="#ffffff" filter="url(#shadow)"/>
  <rect x="34" y="28" width="1372" height="48" rx="26" fill="#f8fafc"/>
  <circle cx="72" cy="52" r="7" fill="#ef4444"/><circle cx="96" cy="52" r="7" fill="#f59e0b"/><circle cx="120" cy="52" r="7" fill="#22c55e"/>
  <rect x="174" y="42" width="412" height="20" rx="10" fill="#e2e8f0"/>
  <text x="82" y="120" class="ui" font-size="28" font-weight="850" fill="#101b2c">coordena_planilhas_gestao</text><text x="82" y="147" class="ui" font-size="13" font-weight="600" fill="#65758b">Estado fiel do repositório: arquivos existem, interface ainda vazia</text><rect x="82" y="162" width="56" height="4" rx="3" fill="#64748b" stroke="#64748b"/><rect x="82" y="216" width="1182" height="330" rx="16" fill="#ffffff" stroke="#e2e8f0"/><text x="112" y="258" class="ui" font-size="22" font-weight="850" fill="#0f172a">Inventário do código</text><rect x="112" y="292" width="1100" height="188" rx="12" fill="#ffffff" stroke="#dce5ef"/><rect x="128" y="306" width="1068" height="34" rx="8" fill="#f2f6fa" stroke="#f2f6fa"/><text x="140" y="328" class="ui" font-size="11" font-weight="800" fill="#617187">Arquivo</text><text x="402" y="328" class="ui" font-size="11" font-weight="800" fill="#617187">Tamanho</text><text x="664" y="328" class="ui" font-size="11" font-weight="800" fill="#617187">Papel</text><text x="926" y="328" class="ui" font-size="11" font-weight="800" fill="#617187">Status</text><line x1="130" y1="342" x2="1194" y2="342" stroke="#e7edf4" stroke-width="1" stroke-linecap="round"/><text x="140" y="364" class="ui" font-size="12" font-weight="600" fill="#2b3b4f">index.html</text><text x="402" y="364" class="ui" font-size="12" font-weight="600" fill="#2b3b4f">0 bytes</text><text x="664" y="364" class="ui" font-size="12" font-weight="600" fill="#2b3b4f">sem UI</text><rect x="926" y="344" width="112" height="26" rx="13" fill="#e6f7ef" stroke="#e6f7ef"/><text x="982" y="362" class="ui" font-size="12" font-weight="800" fill="#13704c" text-anchor="middle">vazio</text><line x1="130" y1="384" x2="1194" y2="384" stroke="#e7edf4" stroke-width="1" stroke-linecap="round"/><text x="140" y="406" class="ui" font-size="12" font-weight="600" fill="#2b3b4f">Code.gs</text><text x="402" y="406" class="ui" font-size="12" font-weight="600" fill="#2b3b4f">0 bytes</text><text x="664" y="406" class="ui" font-size="12" font-weight="600" fill="#2b3b4f">sem backend</text><rect x="926" y="386" width="112" height="26" rx="13" fill="#e6f7ef" stroke="#e6f7ef"/><text x="982" y="404" class="ui" font-size="12" font-weight="800" fill="#13704c" text-anchor="middle">vazio</text><line x1="130" y1="426" x2="1194" y2="426" stroke="#e7edf4" stroke-width="1" stroke-linecap="round"/><text x="140" y="448" class="ui" font-size="12" font-weight="600" fill="#2b3b4f">README.md</text><text x="402" y="448" class="ui" font-size="12" font-weight="600" fill="#2b3b4f">texto</text><text x="664" y="448" class="ui" font-size="12" font-weight="600" fill="#2b3b4f">descrição</text><rect x="926" y="428" width="112" height="26" rx="13" fill="#e6f7ef" stroke="#e6f7ef"/><text x="982" y="446" class="ui" font-size="12" font-weight="800" fill="#13704c" text-anchor="middle">OK</text><rect x="82" y="590" width="1182" height="136" rx="16" fill="#f8fafc" stroke="#e2e8f0"/><text x="112" y="630" class="ui" font-size="20" font-weight="850" fill="#0f172a">Sem inventar tela inexistente</text><text x="112" y="662" class="ui" font-size="14" font-weight="600" fill="#475569">Este guia visual documenta a lacuna atual: o repo precisa receber HTML/Apps Script antes de ter mockup operacional</text><text x="112" y="682" class="ui" font-size="14" font-weight="600" fill="#475569">fiel.</text>
  <text x="1076" y="832" class="ui" font-size="11" fill="#8a98ab">Tela demonstrativa baseada no código do repositório - dados fictícios</text>
</svg>