<svg xmlns="http://www.w3.org/2000/svg" width="1440" height="900" viewBox="0 0 1440 900" role="img" aria-labelledby="title desc">
  <title id="title">Coordena Planilhas - visao geral</title>
  <desc id="desc">Gestao de planilhas, bases e indicadores Dados ficticios, sem informacao real de paciente ou instituicao.</desc>
  <defs>
    <filter id="shadow" x="-20%" y="-20%" width="140%" height="140%"><feDropShadow dx="0" dy="14" stdDeviation="18" flood-color="#0f172a" flood-opacity=".12"/></filter>
  </defs>
  <rect width="1440" height="900" fill="#eef2f7"/>
  <rect x="34" y="28" width="1372" height="820" rx="28" fill="#ffffff" filter="url(#shadow)"/>
  <rect x="34" y="28" width="1372" height="48" rx="28" fill="#f8fafc"/>
  <circle cx="72" cy="52" r="7" fill="#ef4444"/><circle cx="96" cy="52" r="7" fill="#f59e0b"/><circle cx="120" cy="52" r="7" fill="#22c55e"/>
  <rect x="174" y="42" width="410" height="20" rx="10" fill="#e2e8f0"/>
  <rect x="54" y="54" width="218" height="612" rx="22" fill="#0f172a" stroke="#0f172a"/><text x="84" y="104" font-family="Inter, Segoe UI, Arial, sans-serif" font-size="20" font-weight="800" fill="#f8fafc">Coordena</text><text x="84" y="130" font-family="Inter, Segoe UI, Arial, sans-serif" font-size="12" font-weight="600" fill="#94a3b8">WebApp operacional</text><rect x="78" y="152" width="170" height="42" rx="12" fill="#1d4ed8" stroke="#1d4ed8"/><text x="96" y="178" font-family="Inter, Segoe UI, Arial, sans-serif" font-size="14" font-weight="650" fill="#ffffff">Bases</text><text x="96" y="232" font-family="Inter, Segoe UI, Arial, sans-serif" font-size="14" font-weight="500" fill="#cbd5e1">Rotinas</text><text x="96" y="286" font-family="Inter, Segoe UI, Arial, sans-serif" font-size="14" font-weight="500" fill="#cbd5e1">Indicadores</text><text x="96" y="340" font-family="Inter, Segoe UI, Arial, sans-serif" font-size="14" font-weight="500" fill="#cbd5e1">Logs</text><text x="96" y="394" font-family="Inter, Segoe UI, Arial, sans-serif" font-size="14" font-weight="500" fill="#cbd5e1">Config</text>
  <text x="310" y="108" font-family="Inter, Segoe UI, Arial, sans-serif" font-size="30" font-weight="800" fill="#0f172a">Coordena Planilhas - visao geral</text>
  <text x="310" y="132" font-family="Inter, Segoe UI, Arial, sans-serif" font-size="14" font-weight="500" fill="#64748b">Gestao de planilhas, bases e indicadores</text>
  <rect x="310" y="132" width="156" height="42" rx="12" fill="#f8fafc" stroke="#dbe4f0"/><text x="328" y="158" font-family="Inter, Segoe UI, Arial, sans-serif" font-size="13" font-weight="650" fill="#475569">Periodo</text><rect x="486" y="132" width="156" height="42" rx="12" fill="#f8fafc" stroke="#dbe4f0"/><text x="504" y="158" font-family="Inter, Segoe UI, Arial, sans-serif" font-size="13" font-weight="650" fill="#475569">Unidade</text><rect x="662" y="132" width="156" height="42" rx="12" fill="#f8fafc" stroke="#dbe4f0"/><text x="680" y="158" font-family="Inter, Segoe UI, Arial, sans-serif" font-size="13" font-weight="650" fill="#475569">Status</text><rect x="838" y="132" width="156" height="42" rx="12" fill="#f8fafc" stroke="#dbe4f0"/><text x="856" y="158" font-family="Inter, Segoe UI, Arial, sans-serif" font-size="13" font-weight="650" fill="#475569">Modulo</text><rect x="1014" y="132" width="118" height="42" rx="12" fill="#2563eb" stroke="#2563eb"/><text x="1042" y="159" font-family="Inter, Segoe UI, Arial, sans-serif" font-size="14" font-weight="800" fill="#fff">Aplicar</text>
  <rect x="310" y="206" width="205" height="104" rx="16" fill="#eff6ff" stroke="#eff6ff"/><text x="332" y="238" font-family="Inter, Segoe UI, Arial, sans-serif" font-size="14" font-weight="700" fill="#1d4ed8">Registros</text><text x="332" y="276" font-family="Inter, Segoe UI, Arial, sans-serif" font-size="32" font-weight="800" fill="#1d4ed8">126</text><text x="428" y="276" font-family="Inter, Segoe UI, Arial, sans-serif" font-size="13" font-weight="600" fill="#1d4ed8">ativos</text><rect x="536" y="206" width="205" height="104" rx="16" fill="#ecfdf5" stroke="#ecfdf5"/><text x="558" y="238" font-family="Inter, Segoe UI, Arial, sans-serif" font-size="14" font-weight="700" fill="#047857">Concluidos</text><text x="558" y="276" font-family="Inter, Segoe UI, Arial, sans-serif" font-size="32" font-weight="800" fill="#047857">84%</text><text x="654" y="276" font-family="Inter, Segoe UI, Arial, sans-serif" font-size="13" font-weight="600" fill="#047857">periodo</text><rect x="762" y="206" width="205" height="104" rx="16" fill="#fff7ed" stroke="#fff7ed"/><text x="784" y="238" font-family="Inter, Segoe UI, Arial, sans-serif" font-size="14" font-weight="700" fill="#c2410c">Pendencias</text><text x="784" y="276" font-family="Inter, Segoe UI, Arial, sans-serif" font-size="32" font-weight="800" fill="#c2410c">11</text><text x="880" y="276" font-family="Inter, Segoe UI, Arial, sans-serif" font-size="13" font-weight="600" fill="#c2410c">acao</text><rect x="988" y="206" width="205" height="104" rx="16" fill="#f8fafc" stroke="#f8fafc"/><text x="1010" y="238" font-family="Inter, Segoe UI, Arial, sans-serif" font-size="14" font-weight="700" fill="#334155">Logs</text><text x="1010" y="276" font-family="Inter, Segoe UI, Arial, sans-serif" font-size="32" font-weight="800" fill="#334155">312</text><text x="1106" y="276" font-family="Inter, Segoe UI, Arial, sans-serif" font-size="13" font-weight="600" fill="#334155">base</text><rect x="310" y="350" width="390" height="225" rx="18" fill="#ffffff" stroke="#dbe4f0"/><text x="336" y="392" font-family="Inter, Segoe UI, Arial, sans-serif" font-size="19" font-weight="800" fill="#0f172a">Tendencia operacional</text><line x1="344" y1="534" x2="652" y2="534" stroke="#cbd5e1" stroke-width="2" stroke-linecap="round"/><polyline points="352,522 404,496 460,504 520,458 586,438 648,412" fill="none" stroke="#2563eb" stroke-width="6" stroke-linecap="round" stroke-linejoin="round"/><circle cx="520" cy="458" r="7" fill="#2563eb"/><circle cx="586" cy="438" r="7" fill="#2563eb"/><circle cx="648" cy="412" r="7" fill="#2563eb"/><rect x="726" y="350" width="390" height="225" rx="18" fill="#ffffff" stroke="#dbe4f0"/><text x="752" y="392" font-family="Inter, Segoe UI, Arial, sans-serif" font-size="19" font-weight="800" fill="#0f172a">Distribuicao por categoria</text><line x1="760" y1="532" x2="1066" y2="532" stroke="#cbd5e1" stroke-width="2" stroke-linecap="round"/><rect x="782" y="481" width="38" height="51" rx="8" fill="#14b8a6" opacity="0.52"/><rect x="840" y="444" width="38" height="88" rx="8" fill="#14b8a6" opacity="0.60"/><rect x="898" y="466" width="38" height="66" rx="8" fill="#14b8a6" opacity="0.68"/><rect x="956" y="414" width="38" height="118" rx="8" fill="#14b8a6" opacity="0.76"/><rect x="1014" y="451" width="38" height="81" rx="8" fill="#14b8a6" opacity="0.84"/><rect x="310" y="610" width="565" height="245" rx="18" fill="#ffffff" stroke="#dbe4f0"/><text x="336" y="652" font-family="Inter, Segoe UI, Arial, sans-serif" font-size="19" font-weight="800" fill="#0f172a">Fila de trabalho</text><rect x="336" y="674" width="510" height="36" rx="9" fill="#f1f5f9" stroke="#f1f5f9"/><text x="354" y="698" font-family="Inter, Segoe UI, Arial, sans-serif" font-size="12" font-weight="800" fill="#475569">Item</text><text x="482" y="698" font-family="Inter, Segoe UI, Arial, sans-serif" font-size="12" font-weight="800" fill="#475569">Unidade</text><text x="610" y="698" font-family="Inter, Segoe UI, Arial, sans-serif" font-size="12" font-weight="800" fill="#475569">Responsavel</text><text x="738" y="698" font-family="Inter, Segoe UI, Arial, sans-serif" font-size="12" font-weight="800" fill="#475569">Status</text><line x1="338" y1="714" x2="842" y2="714" stroke="#e2e8f0" stroke-width="1" stroke-linecap="round"/><text x="354" y="738" font-family="Inter, Segoe UI, Arial, sans-serif" font-size="13" font-weight="550" fill="#334155">Base</text><text x="482" y="738" font-family="Inter, Segoe UI, Arial, sans-serif" font-size="13" font-weight="550" fill="#334155">Equipe</text><text x="610" y="738" font-family="Inter, Segoe UI, Arial, sans-serif" font-size="13" font-weight="550" fill="#334155">Sistema</text><rect x="734" y="719" width="84" height="28" rx="14" fill="#dcfce7" stroke="#dcfce7"/><text x="748" y="738" font-family="Inter, Segoe UI, Arial, sans-serif" font-size="13" font-weight="700" fill="#166534">OK</text><line x1="338" y1="760" x2="842" y2="760" stroke="#e2e8f0" stroke-width="1" stroke-linecap="round"/><text x="354" y="784" font-family="Inter, Segoe UI, Arial, sans-serif" font-size="13" font-weight="550" fill="#334155">Fluxo</text><text x="482" y="784" font-family="Inter, Segoe UI, Arial, sans-serif" font-size="13" font-weight="550" fill="#334155">Unidade</text><text x="610" y="784" font-family="Inter, Segoe UI, Arial, sans-serif" font-size="13" font-weight="550" fill="#334155">Gestor</text><rect x="734" y="765" width="100" height="28" rx="14" fill="#ffedd5" stroke="#ffedd5"/><text x="748" y="784" font-family="Inter, Segoe UI, Arial, sans-serif" font-size="13" font-weight="700" fill="#9a3412">Aberto</text><line x1="338" y1="806" x2="842" y2="806" stroke="#e2e8f0" stroke-width="1" stroke-linecap="round"/><text x="354" y="830" font-family="Inter, Segoe UI, Arial, sans-serif" font-size="13" font-weight="550" fill="#334155">Relatorio</text><text x="482" y="830" font-family="Inter, Segoe UI, Arial, sans-serif" font-size="13" font-weight="550" fill="#334155">Periodo</text><text x="610" y="830" font-family="Inter, Segoe UI, Arial, sans-serif" font-size="13" font-weight="550" fill="#334155">Analista</text><rect x="734" y="811" width="112" height="28" rx="14" fill="#dbeafe" stroke="#dbeafe"/><text x="748" y="830" font-family="Inter, Segoe UI, Arial, sans-serif" font-size="13" font-weight="700" fill="#1d4ed8">Revisar</text><rect x="902" y="610" width="320" height="245" rx="18" fill="#ffffff" stroke="#dbe4f0"/><text x="928" y="652" font-family="Inter, Segoe UI, Arial, sans-serif" font-size="19" font-weight="800" fill="#0f172a">Acoes rapidas</text><rect x="928" y="684" width="190" height="28" rx="14" fill="#dbeafe" stroke="#dbeafe"/><text x="942" y="703" font-family="Inter, Segoe UI, Arial, sans-serif" font-size="13" font-weight="700" fill="#1d4ed8">Exportar relatorio</text><rect x="928" y="730" width="156" height="28" rx="14" fill="#dcfce7" stroke="#dcfce7"/><text x="942" y="749" font-family="Inter, Segoe UI, Arial, sans-serif" font-size="13" font-weight="700" fill="#166534">Atualizar base</text><rect x="928" y="776" width="140" height="28" rx="14" fill="#fef3c7" stroke="#fef3c7"/><text x="942" y="795" font-family="Inter, Segoe UI, Arial, sans-serif" font-size="13" font-weight="700" fill="#92400e">Ver auditoria</text>
  <text x="1084" y="828" font-family="Inter, Segoe UI, Arial, sans-serif" font-size="12" fill="#94a3b8">Mockup demonstrativo - dados ficticios</text>
</svg>