<svg xmlns="http://www.w3.org/2000/svg" width="1440" height="900" viewBox="0 0 1440 900" role="img" aria-labelledby="title desc">
  <title id="title">Coordena Planilhas - fluxo operacional</title>
  <desc id="desc">Gestao de planilhas, bases e indicadores Dados ficticios, sem informacao real de paciente ou instituicao.</desc>
  <defs>
    <filter id="shadow" x="-20%" y="-20%" width="140%" height="140%"><feDropShadow dx="0" dy="14" stdDeviation="18" flood-color="#0f172a" flood-opacity=".12"/></filter>
  </defs>
  <rect width="1440" height="900" fill="#eef2f7"/>
  <rect x="34" y="28" width="1372" height="820" rx="28" fill="#ffffff" filter="url(#shadow)"/>
  <rect x="34" y="28" width="1372" height="48" rx="28" fill="#f8fafc"/>
  <circle cx="72" cy="52" r="7" fill="#ef4444"/><circle cx="96" cy="52" r="7" fill="#f59e0b"/><circle cx="120" cy="52" r="7" fill="#22c55e"/>
  <rect x="174" y="42" width="410" height="20" rx="10" fill="#e2e8f0"/>
  <rect x="54" y="54" width="218" height="612" rx="22" fill="#0f172a" stroke="#0f172a"/><text x="84" y="104" font-family="Inter, Segoe UI, Arial, sans-serif" font-size="20" font-weight="800" fill="#f8fafc">Coordena</text><text x="84" y="130" font-family="Inter, Segoe UI, Arial, sans-serif" font-size="12" font-weight="600" fill="#94a3b8">WebApp operacional</text><text x="96" y="178" font-family="Inter, Segoe UI, Arial, sans-serif" font-size="14" font-weight="500" fill="#cbd5e1">Bases</text><rect x="78" y="206" width="170" height="42" rx="12" fill="#1d4ed8" stroke="#1d4ed8"/><text x="96" y="232" font-family="Inter, Segoe UI, Arial, sans-serif" font-size="14" font-weight="650" fill="#ffffff">Rotinas</text><text x="96" y="286" font-family="Inter, Segoe UI, Arial, sans-serif" font-size="14" font-weight="500" fill="#cbd5e1">Indicadores</text><text x="96" y="340" font-family="Inter, Segoe UI, Arial, sans-serif" font-size="14" font-weight="500" fill="#cbd5e1">Logs</text><text x="96" y="394" font-family="Inter, Segoe UI, Arial, sans-serif" font-size="14" font-weight="500" fill="#cbd5e1">Config</text>
  <text x="310" y="108" font-family="Inter, Segoe UI, Arial, sans-serif" font-size="30" font-weight="800" fill="#0f172a">Coordena Planilhas - fluxo operacional</text>
  <text x="310" y="132" font-family="Inter, Segoe UI, Arial, sans-serif" font-size="14" font-weight="500" fill="#64748b">Gestao de planilhas, bases e indicadores</text>
  <rect x="310" y="132" width="156" height="42" rx="12" fill="#f8fafc" stroke="#dbe4f0"/><text x="328" y="158" font-family="Inter, Segoe UI, Arial, sans-serif" font-size="13" font-weight="650" fill="#475569">Hoje</text><rect x="486" y="132" width="156" height="42" rx="12" fill="#f8fafc" stroke="#dbe4f0"/><text x="504" y="158" font-family="Inter, Segoe UI, Arial, sans-serif" font-size="13" font-weight="650" fill="#475569">Equipe</text><rect x="662" y="132" width="156" height="42" rx="12" fill="#f8fafc" stroke="#dbe4f0"/><text x="680" y="158" font-family="Inter, Segoe UI, Arial, sans-serif" font-size="13" font-weight="650" fill="#475569">Prioridade</text><rect x="838" y="132" width="156" height="42" rx="12" fill="#f8fafc" stroke="#dbe4f0"/><text x="856" y="158" font-family="Inter, Segoe UI, Arial, sans-serif" font-size="13" font-weight="650" fill="#475569">Busca</text><rect x="1014" y="132" width="118" height="42" rx="12" fill="#2563eb" stroke="#2563eb"/><text x="1042" y="159" font-family="Inter, Segoe UI, Arial, sans-serif" font-size="14" font-weight="800" fill="#fff">Aplicar</text>
  <rect x="310" y="210" width="215" height="572" rx="18" fill="#f8fafc" stroke="#dbe4f0"/><text x="332" y="250" font-family="Inter, Segoe UI, Arial, sans-serif" font-size="17" font-weight="800" fill="#0f172a">Novo</text><rect x="328" y="282" width="178" height="86" rx="14" fill="#ffffff" stroke="#e2e8f0"/><rect x="344" y="298" width="84" height="28" rx="14" fill="#dbeafe" stroke="#dbeafe"/><text x="358" y="317" font-family="Inter, Segoe UI, Arial, sans-serif" font-size="13" font-weight="700" fill="#ffffff">Novo</text><text x="344" y="342" font-family="Inter, Segoe UI, Arial, sans-serif" font-size="13" font-weight="650" fill="#334155">Registro recebido</text><rect x="328" y="386" width="178" height="86" rx="14" fill="#ffffff" stroke="#e2e8f0"/><rect x="344" y="402" width="84" height="28" rx="14" fill="#dbeafe" stroke="#dbeafe"/><text x="358" y="421" font-family="Inter, Segoe UI, Arial, sans-serif" font-size="13" font-weight="700" fill="#ffffff">Novo</text><text x="344" y="446" font-family="Inter, Segoe UI, Arial, sans-serif" font-size="13" font-weight="650" fill="#334155">Validar dados</text><rect x="328" y="490" width="178" height="86" rx="14" fill="#ffffff" stroke="#e2e8f0"/><rect x="344" y="506" width="84" height="28" rx="14" fill="#dbeafe" stroke="#dbeafe"/><text x="358" y="525" font-family="Inter, Segoe UI, Arial, sans-serif" font-size="13" font-weight="700" fill="#ffffff">Novo</text><text x="344" y="550" font-family="Inter, Segoe UI, Arial, sans-serif" font-size="13" font-weight="650" fill="#334155">Classificar</text><rect x="545" y="210" width="215" height="572" rx="18" fill="#f8fafc" stroke="#dbe4f0"/><text x="567" y="250" font-family="Inter, Segoe UI, Arial, sans-serif" font-size="17" font-weight="800" fill="#0f172a">Em analise</text><rect x="563" y="282" width="178" height="86" rx="14" fill="#ffffff" stroke="#e2e8f0"/><rect x="579" y="298" width="84" height="28" rx="14" fill="#fef3c7" stroke="#fef3c7"/><text x="593" y="317" font-family="Inter, Segoe UI, Arial, sans-serif" font-size="13" font-weight="700" fill="#0f172a">Em</text><text x="579" y="342" font-family="Inter, Segoe UI, Arial, sans-serif" font-size="13" font-weight="650" fill="#334155">Conferir regra</text><rect x="563" y="386" width="178" height="86" rx="14" fill="#ffffff" stroke="#e2e8f0"/><rect x="579" y="402" width="84" height="28" rx="14" fill="#fef3c7" stroke="#fef3c7"/><text x="593" y="421" font-family="Inter, Segoe UI, Arial, sans-serif" font-size="13" font-weight="700" fill="#0f172a">Em</text><text x="579" y="446" font-family="Inter, Segoe UI, Arial, sans-serif" font-size="13" font-weight="650" fill="#334155">Acionar equipe</text><rect x="563" y="490" width="178" height="86" rx="14" fill="#ffffff" stroke="#e2e8f0"/><rect x="579" y="506" width="84" height="28" rx="14" fill="#fef3c7" stroke="#fef3c7"/><text x="593" y="525" font-family="Inter, Segoe UI, Arial, sans-serif" font-size="13" font-weight="700" fill="#0f172a">Em</text><text x="579" y="550" font-family="Inter, Segoe UI, Arial, sans-serif" font-size="13" font-weight="650" fill="#334155">Atualizar status</text><rect x="780" y="210" width="215" height="572" rx="18" fill="#f8fafc" stroke="#dbe4f0"/><text x="802" y="250" font-family="Inter, Segoe UI, Arial, sans-serif" font-size="17" font-weight="800" fill="#0f172a">Concluido</text><rect x="798" y="282" width="178" height="86" rx="14" fill="#ffffff" stroke="#e2e8f0"/><rect x="814" y="298" width="84" height="28" rx="14" fill="#dcfce7" stroke="#dcfce7"/><text x="828" y="317" font-family="Inter, Segoe UI, Arial, sans-serif" font-size="13" font-weight="700" fill="#0f172a">Concluido</text><text x="814" y="342" font-family="Inter, Segoe UI, Arial, sans-serif" font-size="13" font-weight="650" fill="#334155">Auditar log</text><rect x="798" y="386" width="178" height="86" rx="14" fill="#ffffff" stroke="#e2e8f0"/><rect x="814" y="402" width="84" height="28" rx="14" fill="#dcfce7" stroke="#dcfce7"/><text x="828" y="421" font-family="Inter, Segoe UI, Arial, sans-serif" font-size="13" font-weight="700" fill="#0f172a">Concluido</text><text x="814" y="446" font-family="Inter, Segoe UI, Arial, sans-serif" font-size="13" font-weight="650" fill="#334155">Exportar</text><rect x="798" y="490" width="178" height="86" rx="14" fill="#ffffff" stroke="#e2e8f0"/><rect x="814" y="506" width="84" height="28" rx="14" fill="#dcfce7" stroke="#dcfce7"/><text x="828" y="525" font-family="Inter, Segoe UI, Arial, sans-serif" font-size="13" font-weight="700" fill="#0f172a">Concluido</text><text x="814" y="550" font-family="Inter, Segoe UI, Arial, sans-serif" font-size="13" font-weight="650" fill="#334155">Arquivar</text>
  <text x="1084" y="828" font-family="Inter, Segoe UI, Arial, sans-serif" font-size="12" fill="#94a3b8">Mockup demonstrativo - dados ficticios</text>
</svg>